<svg version="1.1" id="Layer_1" xmlns="http://www.w3.org/2000/svg" xmlns:xlink="http://www.w3.org/1999/xlink" x="0px" y="0px"
	 width="100%" viewBox="0 0 1024 1008" enable-background="new 0 0 1024 1008" xml:space="preserve">
<path fill="#000000" opacity="1.000000" stroke="none" 
	d="
M328.820435,366.112061 
	C311.615387,334.787140 297.249695,302.590302 285.201477,269.339813 
	C284.050720,266.163971 283.751404,264.263672 287.636902,262.966644 
	C305.468597,257.014221 323.452789,251.577377 341.528381,246.426422 
	C344.744141,245.510040 346.881744,246.936951 349.014893,249.085663 
	C364.629425,264.814240 380.876404,279.859131 397.823364,294.149994 
	C418.967682,311.980347 440.811005,328.897034 463.324310,344.967651 
	C498.854950,370.330444 535.522156,393.949188 572.594543,416.975311 
	C608.956909,439.560455 645.632019,461.622955 682.339355,483.637360 
	C689.613892,488.000122 696.598083,492.852142 703.647339,497.581238 
	C705.073669,498.538116 707.045410,499.201080 707.170959,501.420319 
	C706.062683,502.679382 705.027466,501.883850 704.030334,501.369537 
	C682.214478,490.116669 658.804199,485.699005 634.538391,486.440643 
	C609.292969,487.212250 585.331421,494.129272 562.245544,504.133240 
	C533.041260,516.788574 506.773529,533.801086 484.906250,557.129028 
	C481.244080,561.035889 479.176605,558.539246 476.825470,556.157471 
	C457.750977,536.834229 439.060425,517.159180 421.117920,496.762909 
	C396.640625,468.938110 374.764404,439.167511 354.361542,408.300873 
	C345.366730,394.692963 336.778503,380.798065 328.820435,366.112061 
z"/>
<path fill="#000000" opacity="1.000000" stroke="none" 
	d="
M454.141663,138.865570 
	C461.800323,137.741791 469.038391,136.755280 476.242401,135.562790 
	C483.144653,134.420258 488.925507,137.973297 494.870911,140.181396 
	C517.264282,148.498215 538.557922,159.037369 557.885437,173.264923 
	C561.262146,175.750580 564.431763,178.426788 566.868591,181.864670 
	C569.423157,185.468658 568.807251,186.865295 564.549255,187.257538 
	C540.030823,189.516129 515.617371,192.555008 491.440735,197.285660 
	C460.125732,203.413071 428.973328,210.213623 398.005829,217.984222 
	C367.981903,225.518082 337.987000,233.212677 308.563202,242.711594 
	C240.724731,264.611969 174.333633,290.427856 109.015549,318.987976 
	C105.511147,320.520203 102.009354,322.058533 98.499100,323.577240 
	C94.125557,325.469482 90.350945,324.878845 87.525314,320.776794 
	C84.863457,316.912506 85.152313,312.099518 89.093056,308.552277 
	C94.776581,303.436249 100.812569,298.689331 106.894653,294.042084 
	C168.140198,247.244858 234.588638,209.672836 306.259766,181.251083 
	C341.297302,167.356659 377.316986,156.666550 413.747284,147.294266 
	C426.914185,143.906860 440.377930,141.673019 454.141663,138.865570 
z"/>
<path fill="#000000" opacity="1.000000" stroke="none" 
	d="
M639.755371,522.622925 
	C642.141846,525.666504 639.085693,525.721008 637.839233,526.302917 
	C619.011841,535.092102 601.786072,546.470276 585.474304,559.194702 
	C552.892578,584.610962 524.436707,613.870117 503.940765,650.092896 
	C497.201721,662.002869 492.281891,674.711121 492.199127,688.854370 
	C492.171295,693.615356 493.966980,695.004333 498.369263,694.778076 
	C508.336914,694.265869 517.987305,695.586487 526.518555,701.253784 
	C544.383484,713.121094 548.692383,736.010498 536.739868,755.046997 
	C533.251526,760.602722 529.243164,765.696045 523.394165,768.964355 
	C520.476440,770.594727 517.368896,772.257751 513.987549,770.425903 
	C510.432129,768.499756 510.512177,764.942566 510.879669,761.598328 
	C511.369354,757.141968 511.693176,752.810974 510.851685,748.282349 
	C508.162964,733.812988 493.111725,724.009094 478.897125,728.069458 
	C465.200653,731.981873 452.885162,739.152893 440.089691,745.161987 
	C412.220581,758.250000 384.879303,772.523499 355.707336,782.663086 
	C349.431183,784.844543 343.004181,786.593811 336.637543,788.511963 
	C335.168304,788.954651 333.677979,789.201538 332.606201,787.591553 
	C332.606964,785.414429 334.380219,784.520325 335.734680,783.386169 
	C367.464844,756.817322 391.973450,724.620972 411.485657,688.217468 
	C429.783722,654.079285 450.820587,621.739685 477.831604,593.596680 
	C505.718597,564.541016 538.210693,543.214172 577.008057,531.459106 
	C597.468872,525.259705 618.202148,522.482422 639.755371,522.622925 
z"/>
<path fill="#000000" opacity="1.000000" stroke="none" 
	d="
M612.606812,647.582642 
	C638.263367,633.249390 662.570679,617.565918 685.453735,599.648560 
	C714.132202,577.193298 738.650818,550.902405 759.985779,521.440002 
	C774.838989,500.928528 788.381653,479.525787 803.232300,459.023376 
	C804.148376,457.758667 804.568176,455.855286 807.661011,455.898407 
	C782.300110,529.301270 746.631836,595.858887 689.375122,648.958313 
	C690.525879,651.643188 692.602417,652.214050 694.191223,653.311890 
	C707.345398,662.400085 712.284302,676.746765 707.103943,691.862793 
	C704.074829,700.701660 699.343079,708.508850 691.219910,713.645264 
	C688.457703,715.391785 685.342346,717.315918 681.900330,715.370667 
	C678.179138,713.267700 678.260925,709.523193 678.915955,706.048889 
	C681.429749,692.714233 676.083862,683.161133 665.220947,675.881836 
	C662.631531,674.146606 660.896179,673.912964 658.223206,675.780396 
	C641.427490,687.514771 624.532043,699.106689 605.781921,707.644714 
	C591.975464,713.931641 577.977600,719.653687 563.259705,723.525024 
	C559.243347,724.581360 557.073853,724.399475 556.635132,719.444214 
	C554.748840,698.138977 533.659912,680.703674 514.976074,677.852234 
	C512.929749,677.539917 510.619904,677.608704 509.031067,675.774292 
	C513.418335,671.514526 518.572083,670.641235 523.331116,673.695496 
	C527.187805,676.170776 531.493835,676.605774 535.703491,677.807373 
	C546.632202,680.926819 555.089417,675.939270 564.044861,671.885559 
	C580.434387,664.466614 596.432251,656.255249 612.606812,647.582642 
z"/>
<path fill="#000000" opacity="1.000000" stroke="none" 
	d="
M695.705627,367.665771 
	C718.011047,351.424927 742.805725,345.204163 769.592712,348.069611 
	C788.060608,350.045166 804.320984,358.037323 818.370239,370.299622 
	C820.628784,372.270905 822.817627,374.325897 825.133850,376.226227 
	C829.349731,379.685059 833.952576,381.540314 839.677490,381.783020 
	C853.283447,382.359680 867.005859,380.674316 880.500427,383.703369 
	C884.792297,384.666687 888.741272,386.352051 892.351257,388.800873 
	C893.984070,389.908508 895.835205,391.165222 895.398560,393.538483 
	C895.009216,395.654083 893.023499,396.201416 891.299500,396.768372 
	C875.516052,401.959137 860.949036,409.548096 847.312378,418.982208 
	C839.047546,424.699921 831.451965,431.160919 825.537720,439.363098 
	C823.671326,441.951477 821.657410,442.333008 818.657776,441.595001 
	C807.164612,438.767426 801.088013,430.810852 797.851929,420.129456 
	C796.074646,414.263123 795.269714,408.039154 790.837708,403.277374 
	C781.847107,393.617889 770.250427,391.333923 757.908325,392.424530 
	C740.731750,393.942352 726.268188,401.455109 715.125427,414.638000 
	C699.259583,433.408630 699.987366,458.771393 716.489685,476.885773 
	C719.763367,480.479309 723.959351,483.286987 726.643005,487.630035 
	C724.534668,488.803864 723.615173,487.493530 722.604126,486.814484 
	C696.749207,469.449463 670.309326,453.020538 643.382874,437.376434 
	C640.887146,435.926392 639.325378,434.800110 641.151001,431.661469 
	C655.416748,407.136597 671.976624,384.584320 695.705627,367.665771 
z"/>
<path fill="#000000" opacity="1.000000" stroke="none" 
	d="
M536.979980,141.105209 
	C530.181519,137.542908 522.945862,136.114929 516.026428,133.098846 
	C517.184875,130.427597 519.398376,130.813934 521.182312,130.808289 
	C540.501831,130.747040 559.842590,130.203384 579.136353,130.911514 
	C607.033875,131.935410 634.787109,134.765350 662.366150,139.400497 
	C686.805908,143.508041 710.966614,148.833603 734.895630,155.139114 
	C766.270325,163.406601 796.953674,173.780777 826.850586,186.498123 
	C837.281494,190.935165 847.622375,195.455307 857.475159,201.055832 
	C858.920044,201.877136 860.325256,202.780823 861.683228,203.739304 
	C863.245239,204.841751 864.642578,206.198090 863.661743,208.308014 
	C862.569946,210.656723 860.579529,209.765411 858.883057,209.206589 
	C843.221863,204.047516 827.166138,200.369339 811.043701,197.125519 
	C798.195496,194.540482 785.145874,192.950806 772.179932,190.956940 
	C750.317749,187.595093 728.272949,185.971985 706.234131,184.482422 
	C695.284607,183.742355 684.263550,183.970184 673.274231,183.930573 
	C655.619751,183.866943 637.959290,183.692978 620.312561,184.079834 
	C612.674622,184.247284 605.035095,184.212021 597.402344,184.456070 
	C595.029297,184.531952 593.173035,184.261139 591.972717,181.960556 
	C584.358948,167.367004 571.306702,158.759323 557.514526,151.113922 
	C550.974121,147.488358 544.071167,144.516754 536.979980,141.105209 
z"/>
<path fill="#000000" opacity="1.000000" stroke="none" 
	d="
M612.829102,397.883942 
	C627.365295,370.825958 643.403320,345.110748 659.962646,319.698425 
	C675.800415,295.393402 692.424988,271.667542 711.266296,249.587067 
	C726.117310,232.182877 742.204834,216.031403 761.547119,203.505081 
	C764.761658,201.423264 767.925781,198.776672 771.969238,199.234024 
	C773.274841,200.795792 772.453003,201.794083 771.865356,202.761307 
	C759.814087,222.594803 749.518250,243.339951 740.901184,264.848206 
	C731.987305,287.097382 723.992126,309.706146 718.660461,333.142334 
	C718.010681,335.998596 716.863220,337.831696 714.024963,338.991180 
	C686.867065,350.086029 664.762329,367.790375 646.502319,390.599060 
	C638.790955,400.231323 631.395874,410.076050 624.557678,420.336487 
	C622.524048,423.387787 620.522949,424.408569 617.368591,421.715485 
	C615.486511,420.108612 613.229126,418.922119 611.076721,417.654785 
	C604.729553,413.917633 604.673950,413.917786 607.779724,407.500519 
	C609.302612,404.354034 611.020020,401.301636 612.829102,397.883942 
z"/>
<path fill="#000000" opacity="1.000000" stroke="none" 
	d="
M536.995972,205.593033 
	C540.014526,205.584351 540.127197,207.532532 540.257996,209.394699 
	C540.828552,217.515656 541.315063,225.642807 541.930176,233.760269 
	C543.234924,250.977264 544.519775,268.196533 545.989563,285.399750 
	C546.447205,290.755554 545.752502,296.281769 548.018005,302.236786 
	C552.113159,291.869659 555.837708,282.145569 559.783081,272.511902 
	C569.185974,249.552216 578.723877,226.647842 588.122681,203.686523 
	C589.425964,200.502487 591.437866,198.882751 594.901855,198.939850 
	C599.336853,199.012939 603.773987,198.957581 608.871826,198.957581 
	C607.325928,205.288559 604.569336,210.748184 602.293701,216.355789 
	C588.771179,249.678574 575.189697,282.977417 561.619324,316.280792 
	C559.985962,320.289459 558.635681,324.459717 556.575500,328.239655 
	C550.276367,339.797119 550.259033,351.934601 551.881348,364.559814 
	C552.535950,369.653870 553.927368,374.960419 552.475769,381.619995 
	C545.461060,377.035645 539.134277,372.942902 532.866028,368.762360 
	C531.841980,368.079376 531.786072,366.775604 531.713989,365.582092 
	C531.433105,360.932343 530.702209,356.265198 530.919922,351.641327 
	C531.179749,346.120789 529.171265,341.769867 526.158142,337.367706 
	C500.852966,300.396271 475.678680,263.335297 450.464752,226.301422 
	C447.234283,221.556549 447.509460,220.868149 453.130798,219.642105 
	C453.293518,219.606598 453.456696,219.573227 453.619049,219.536240 
	C465.867432,216.746185 465.841522,216.763794 473.066467,227.372650 
	C490.034210,252.287582 507.025726,277.186340 524.023560,302.080750 
	C524.857788,303.302490 525.843140,304.421082 527.146118,306.082367 
	C528.795898,301.907623 527.713684,298.145355 527.498596,294.552643 
	C525.978271,269.154327 524.236206,243.769333 522.601501,218.377716 
	C521.911072,207.654190 521.949951,207.642883 532.625671,205.998734 
	C533.940552,205.796249 535.278931,205.746323 536.995972,205.593033 
z"/>
<path fill="#000000" opacity="1.000000" stroke="none" 
	d="
M318.578217,602.461426 
	C344.331146,593.276855 369.713776,584.221436 395.105835,575.192383 
	C403.098267,572.350403 411.078125,569.464355 419.135498,566.816833 
	C424.319611,565.113525 429.367035,566.877747 431.898041,570.836670 
	C434.330963,574.642212 433.619659,580.335388 430.425507,584.355774 
	C427.462921,588.084656 423.310303,589.703125 419.064575,591.233093 
	C365.380981,610.578796 311.708496,629.955383 258.008423,649.255188 
	C227.940140,660.061768 197.828766,670.748535 167.727463,681.463074 
	C165.075958,682.406860 162.419037,683.489685 159.483887,683.021790 
	C154.235855,682.185181 150.380081,678.304749 149.636230,673.102783 
	C148.945267,668.270752 152.308319,662.633606 157.671661,660.570618 
	C169.942505,655.850586 182.272552,651.278809 194.639465,646.815552 
	C228.588562,634.563232 262.565765,622.388611 296.539917,610.205750 
	C303.746185,607.621582 310.986786,605.133240 318.578217,602.461426 
z"/>
<path fill="#000000" opacity="1.000000" stroke="none" 
	d="
M233.031174,566.143005 
	C205.802155,576.194153 178.943344,586.119934 152.082108,596.039246 
	C144.891403,598.694641 139.309067,596.561890 136.316055,590.039368 
	C133.891724,584.756104 136.334549,577.976624 142.422089,574.975830 
	C153.039200,569.742249 164.416367,566.361084 175.480896,562.227661 
	C199.492737,553.257507 223.545914,544.395508 247.642151,535.654602 
	C268.761292,527.993652 289.973145,520.588684 311.123413,513.013000 
	C326.790741,507.401245 342.419189,501.681061 358.082062,496.056732 
	C359.784302,495.445526 361.533081,494.691467 363.426819,495.091370 
	C365.201385,495.466064 366.330017,496.064789 366.005737,498.448792 
	C365.419525,502.758118 367.309784,504.197754 370.863464,501.983002 
	C374.779053,499.542664 375.612732,501.897400 376.181793,504.770172 
	C377.126526,509.539001 374.139984,513.746033 367.796844,516.203979 
	C355.690552,520.895020 343.523315,525.431335 331.343964,529.930603 
	C298.706665,541.987427 266.049652,553.990662 233.031174,566.143005 
z"/>
<path fill="#000000" opacity="1.000000" stroke="none" 
	d="
M692.875610,204.906097 
	C695.478699,199.515137 699.024780,197.174896 704.958618,198.662109 
	C708.863525,199.640793 713.148132,197.928696 717.400391,199.531769 
	C716.853699,203.231918 714.456421,205.657806 712.660522,208.326904 
	C691.843323,239.265289 670.725952,270.004700 650.174438,301.118011 
	C628.985901,333.195648 607.100281,364.831573 587.542908,397.964752 
	C585.712158,401.066284 583.746338,401.819336 580.730652,399.610962 
	C578.855225,398.237610 576.826599,397.061829 574.810730,395.894043 
	C568.709961,392.359802 568.721680,392.392273 572.612427,386.235565 
	C605.432739,334.300201 640.092285,283.580078 674.192627,232.490631 
	C680.291260,223.353561 686.509583,214.296417 692.875610,204.906097 
z"/>
<path fill="#000000" opacity="1.000000" stroke="none" 
	d="
M372.691528,699.363892 
	C379.333954,708.596375 376.781830,716.410828 365.790344,720.596313 
	C346.529144,727.930908 327.197876,735.081848 307.882599,742.273926 
	C301.184967,744.767761 294.462799,747.197754 287.724731,749.580322 
	C278.997589,752.666077 274.050934,750.982117 271.267609,744.084106 
	C268.467255,737.143921 271.553802,730.571533 279.433777,727.471130 
	C289.630829,723.459045 299.902313,719.630310 310.196381,715.872314 
	C327.195984,709.666321 344.242401,703.588562 361.262054,697.437256 
	C365.306976,695.975281 369.074493,696.110962 372.691528,699.363892 
z"/>
<path fill="#000000" opacity="1.000000" stroke="none" 
	d="
M233.935455,441.847748 
	C252.322296,435.281769 270.332825,428.826691 288.360016,422.418457 
	C289.917297,421.864868 291.567780,421.503174 293.205933,421.268982 
	C294.591339,421.070923 296.469025,421.515350 296.235718,423.039154 
	C294.948029,431.448822 300.721222,434.364166 306.841705,436.914337 
	C306.758087,439.613159 304.677307,439.954071 303.089233,440.560364 
	C285.679993,447.207031 268.253845,453.809753 250.811005,460.367889 
	C243.800552,463.003632 236.738937,465.503479 229.698410,468.059052 
	C222.933029,470.514740 216.900711,468.480499 214.401169,462.908997 
	C211.717804,456.927734 214.259293,450.335632 220.515900,446.910309 
	C224.639450,444.652802 229.135620,443.408813 233.935455,441.847748 
z"/>
<path fill="#000000" opacity="1.000000" stroke="none" 
	d="
M773.749695,420.694824 
	C772.231262,427.081696 768.244446,430.637329 762.361145,431.629669 
	C757.619873,432.429413 754.074341,429.688934 751.388855,426.051331 
	C747.375366,420.614685 748.876221,412.831482 754.520996,408.954987 
	C759.873535,405.279236 767.520996,406.823273 771.238464,412.356934 
	C772.850403,414.756439 773.710999,417.418793 773.749695,420.694824 
z"/>
</svg>